<?xml version="1.0" encoding="UTF-8" standalone="no"?>
<svg
   xmlns:dc="http://purl.org/dc/elements/1.1/"
   xmlns:cc="http://creativecommons.org/ns#"
   xmlns:rdf="http://www.w3.org/1999/02/22-rdf-syntax-ns#"
   xmlns:svg="http://www.w3.org/2000/svg"
   xmlns="http://www.w3.org/2000/svg"
   viewBox="0 0 392.47259 75.881067"
   height="75.881065"
   width="392.4726"
   xml:space="preserve"
   id="svg4504"
   version="1.1"><metadata
     id="metadata4510"><rdf:RDF><cc:Work
         rdf:about=""><dc:format>image/svg+xml</dc:format><dc:type
           rdf:resource="http://purl.org/dc/dcmitype/StillImage" /><dc:title></dc:title></cc:Work></rdf:RDF></metadata><defs
     id="defs4508"><clipPath
       id="clipPath4520"
       clipPathUnits="userSpaceOnUse"><path
         id="path4518"
         d="M 0,86.232 H 335.928 V 0 H 0 Z" /></clipPath></defs><g
     transform="matrix(1.3333333,0,0,-1.3333333,-22.085132,93.234131)"
     id="g4512"><g
       id="g4514"><g
         clip-path="url(#clipPath4520)"
         id="g4516"><g
           transform="translate(304.3133,34.4473)"
           id="g4522"><path
             id="path4524"
             style="fill:#231f20;fill-opacity:1;fill-rule:nonzero;stroke:none"
             d="m 0,0 c -1.113,-2.596 -3.657,-4.273 -6.481,-4.273 -3.883,0 -7.042,3.159 -7.042,7.042 0,3.886 3.159,7.048 7.042,7.048 2.824,0 5.368,-1.677 6.48,-4.272 C 0.376,4.66 0.567,3.726 0.567,2.769 0.567,1.815 0.376,0.884 0,0 M -0.046,28.639 V 14.131 c -1.957,1.108 -4.161,1.689 -6.435,1.689 -7.215,0 -13.085,-5.87 -13.085,-13.085 0,-7.215 5.87,-13.086 13.085,-13.086 2.271,0 4.475,0.581 6.435,1.686 v -0.976 h 6.651 v 38.28 z" /></g><g
           transform="translate(266.6606,30.1583)"
           id="g4526"><path
             id="path4528"
             style="fill:#231f20;fill-opacity:1;fill-rule:nonzero;stroke:none"
             d="m 0,0 c -3.891,0 -7.045,3.154 -7.045,7.045 0,3.891 3.154,7.046 7.045,7.046 3.891,0 7.045,-3.155 7.045,-7.046 C 7.045,3.154 3.891,0 0,0 M 7.045,19.39 V 18.033 C 5.011,19.336 2.595,20.094 0,20.094 c -7.227,0 -13.086,-5.859 -13.086,-13.086 0,-7.227 5.859,-13.085 13.086,-13.085 2.595,0 5.011,0.758 7.045,2.061 v -1.351 h 6.651 V 19.39 Z" /></g><g
           transform="translate(143.6896,30.1583)"
           id="g4530"><path
             id="path4532"
             style="fill:#231f20;fill-opacity:1;fill-rule:nonzero;stroke:none"
             d="m 0,0 c -3.891,0 -7.045,3.154 -7.045,7.045 0,3.891 3.154,7.046 7.045,7.046 3.891,0 7.045,-3.155 7.045,-7.046 C 7.045,3.154 3.891,0 0,0 M 7.045,19.39 V 18.033 C 5.011,19.336 2.595,20.094 0,20.094 c -7.227,0 -13.086,-5.859 -13.086,-13.086 0,-7.227 5.859,-13.085 13.086,-13.085 2.595,0 5.011,0.758 7.045,2.061 v -1.351 h 6.651 V 19.39 Z" /></g><g
           transform="translate(181.3579,34.4168)"
           id="g4534"><path
             id="path4536"
             style="fill:#231f20;fill-opacity:1;fill-rule:nonzero;stroke:none"
             d="m 0,0 c -1.113,-2.596 -3.657,-4.273 -6.481,-4.273 -3.883,0 -7.042,3.159 -7.042,7.042 0,3.887 3.159,7.049 7.042,7.049 2.824,0 5.368,-1.678 6.48,-4.272 C 0.376,4.661 0.567,3.727 0.567,2.769 0.567,1.816 0.376,0.884 0,0 m -0.046,14.132 c -1.957,1.107 -4.161,1.688 -6.435,1.688 -7.215,0 -13.085,-5.869 -13.085,-13.085 0,-7.215 5.87,-13.085 13.085,-13.085 2.271,0 4.475,0.58 6.435,1.685 V -9.64 h 6.651 v 38.279 h -6.651 z" /></g><g
           transform="translate(235.9933,30.1428)"
           id="g4538"><path
             id="path4540"
             style="fill:#231f20;fill-opacity:1;fill-rule:nonzero;stroke:none"
             d="m 0,0 c -2.824,0 -5.368,1.677 -6.48,4.272 -0.377,0.885 -0.568,1.819 -0.568,2.776 0,0.953 0.191,1.886 0.567,2.769 1.113,2.596 3.657,4.274 6.481,4.274 3.883,0 7.043,-3.16 7.043,-7.043 C 7.043,3.161 3.883,0 0,0 m 0,20.168 c -2.27,0 -4.475,-0.58 -6.435,-1.686 v 0.976 h -6.651 v -36.586 h 6.651 v 12.813 c 1.957,-1.107 4.162,-1.688 6.435,-1.688 7.215,0 13.086,5.87 13.086,13.085 0,7.215 -5.871,13.086 -13.086,13.086" /></g><g
           transform="translate(205.283,44.2333)"
           id="g4542"><path
             id="path4544"
             style="fill:#231f20;fill-opacity:1;fill-rule:nonzero;stroke:none"
             d="M 0,0 C 2.697,0 5.141,-1.553 6.315,-3.938 H -5.947 C -4.793,-1.456 -2.62,0 0,0 m 0,6.033 c -7.134,0 -12.722,-5.754 -12.722,-13.1 0,-7.223 5.876,-13.1 13.1,-13.1 4.143,0 7.953,1.899 10.455,5.209 l 0.362,0.479 -5.031,3.385 -0.328,-0.401 c -1.345,-1.649 -3.335,-2.594 -5.458,-2.594 -2.956,0 -5.567,1.844 -6.588,4.566 h 19.088 l 0.074,0.484 c 0.098,0.648 0.148,1.312 0.148,1.972 0,7.224 -5.877,13.1 -13.1,13.1" /></g><g
           transform="translate(127.2747,50.2905)"
           id="g4546"><path
             id="path4548"
             style="fill:#231f20;fill-opacity:1;fill-rule:nonzero;stroke:none"
             d="M 0,0 V 0.02 H -0.568 C -0.612,0.02 -0.656,0.018 -0.7,0.016 L -0.916,0.013 -1.472,-0.017 V -0.019 C -3.425,-0.153 -5.31,-0.715 -7,-1.667 v 0.977 h -6.65 v -24.794 h 6.634 v 12.391 c 0,1.681 0,3.773 2,5.452 1.215,1.021 2.795,1.583 4.448,1.584 0.376,0 0.762,-0.031 1.149,-0.092 l 0.657,-0.105 v 6.152 L 0.726,-0.051 C 0.489,-0.027 0.246,-0.011 0,0" /></g><g
           transform="translate(101.3742,55.63)"
           id="g4550"><path
             id="path4552"
             style="fill:#231f20;fill-opacity:1;fill-rule:nonzero;stroke:none"
             d="m 0,0 h -6.934 v -6.036 h -3.653 v -5.936 h 3.653 v -6.797 c 0,-6.05 3.344,-10.617 8.946,-12.216 1.04,-0.297 2.111,-0.481 3.183,-0.547 l 0.603,-0.037 V -26 l -0.053,0.519 -0.508,0.054 -0.099,0.016 C 4.65,-25.348 4.185,-25.239 3.757,-25.086 1.264,-24.195 0,-22.058 0,-18.736 v 6.764 h 5.798 v 5.936 H 0 Z" /></g><g
           transform="translate(58.3866,52.9406)"
           id="g4554"><path
             id="path4556"
             style="fill:#231f20;fill-opacity:1;fill-rule:nonzero;stroke:none"
             d="m 0,0 -0.878,1.521 v 0 l -3.616,6.262 -4.253,7.366 c -0.648,1.132 -1.862,1.836 -3.169,1.836 H -29.42 c -1.306,0 -2.52,-0.704 -3.163,-1.826 l -8.754,-15.162 c -0.648,-1.124 -0.648,-2.523 0.002,-3.65 l 8.75,-15.157 c 0.651,-1.128 1.862,-1.829 3.165,-1.829 h 8.752 l -3.615,6.263 v 0 h -3.63 l -7.246,12.549 7.246,12.55 h 14.491 l 1.697,-2.94 3.616,-6.262 v 0 l 1.933,-3.348 -7.246,-12.549 h -2.047 l 3.697,-6.253 c 1.251,0.05 2.401,0.736 3.019,1.817 L 0.002,-3.65 C 0.65,-2.526 0.65,-1.127 0,0" /></g><g
           transform="translate(74.5603,43.7383)"
           id="g4558"><path
             id="path4560"
             style="fill:#231f20;fill-opacity:1;fill-rule:nonzero;stroke:none"
             d="m 0,0 -8.746,15.149 c -0.649,1.132 -1.863,1.836 -3.169,1.836 h -8.753 l 3.616,-6.262 h 3.63 l 7.246,-12.55 -7.246,-12.549 h -14.491 l -1.697,2.94 -3.616,6.262 v 0 l -1.933,3.347 7.246,12.55 h 1.371 0.631 l -3.612,6.252 c -0.175,-0.006 -0.349,-0.02 -0.519,-0.05 -1.06,-0.185 -2.002,-0.825 -2.54,-1.766 l -8.755,-15.162 c -0.648,-1.124 -0.648,-2.523 0.002,-3.65 l 0.878,-1.521 v 0 l 3.615,-6.262 4.257,-7.374 c 0.651,-1.128 1.862,-1.829 3.165,-1.829 h 17.505 c 1.306,0 2.52,0.705 3.162,1.827 L 0.002,-3.65 C 0.65,-2.526 0.65,-1.127 0,0" /></g></g></g></g></svg>